<svg xmlns="http://www.w3.org/2000/svg" width="48" height="48"><circle cx="24" cy="24" r="24" fill="#ef4c45" fill-rule="evenodd"/><path fill="#fff" d="M13.5 13a.5.5 0 0 0-.5.5v17.65a.5.5 0 0 0 .5.5h4.223l.73 4.079a.502.502 0 0 0 .58.404l12.815-2.301c.033-.006.06-.023.09-.035.022-.01.046-.014.068-.027a.497.497 0 0 0 .164-.145l3.738-5.377a.49.49 0 0 0 .08-.246c.002-.023.004-.041.002-.064 0-.022.004-.043 0-.065l-2.299-12.812a.503.503 0 0 0-.58-.405l-1.46.262V13.5a.5.5 0 0 0-.5-.5H13.5Zm.5 1h16.65v1.098l-14.912 2.677a.498.498 0 0 0-.402.58l2.207 12.295H14V14Zm18.797 1.73L34.92 27.56l-4.068.728a.504.504 0 0 0-.404.582l.73 4.068-11.828 2.124-2.944-16.39 16.39-2.94zM34.4 28.666l-2.363 3.398-.517-2.88 2.88-.518z"/></svg>